<svg xmlns="http://www.w3.org/2000/svg" viewBox="0 0 1200 675" role="img" aria-labelledby="t d">
<title id="t">Heart monitoring clock concept</title><desc id="d">A digital clock with ECG line and glowing heart icon.</desc>
<defs><linearGradient id="bg" x1="0" y1="0" x2="1" y2="1"><stop stop-color="#1b1038"/><stop offset="1" stop-color="#3559ba"/></linearGradient></defs>
<rect width="1200" height="675" fill="url(#bg)"/>
<rect x="170" y="120" width="860" height="430" rx="36" fill="rgba(255,255,255,.08)" stroke="rgba(255,255,255,.25)"/>
<text x="220" y="225" fill="#c4d4ff" font-family="Segoe UI, Arial" font-size="78" font-weight="700">07:42</text>
<path d="M220 355h110l45-75 52 145 65-105h88l42 74h96" fill="none" stroke="#ff7aa8" stroke-width="16" stroke-linecap="round" stroke-linejoin="round"/>
<path d="M870 262c0-34 26-58 57-58 26 0 43 15 53 34 10-19 27-34 53-34 31 0 57 24 57 58 0 56-73 105-110 137-37-32-110-81-110-137z" fill="#ff5e97"/>
</svg>
