<svg xmlns="http://www.w3.org/2000/svg" viewBox="0 0 1200 675" role="img" aria-labelledby="t d">
<title id="t">Music platform workflow illustration</title><desc id="d">Waveforms, mixer sliders, and notes for digital music production.</desc>
<defs><linearGradient id="g" x1="0" y1="0" x2="1" y2="1"><stop stop-color="#1b1038"/><stop offset="1" stop-color="#6a2ca1"/></linearGradient></defs>
<rect width="1200" height="675" fill="url(#g)"/>
<rect x="150" y="110" width="900" height="455" rx="32" fill="rgba(255,255,255,.09)" stroke="rgba(255,255,255,.25)"/>
<path d="M220 300c45-90 90 90 135 0s90-90 135 0 90 90 135 0 90-90 135 0 90 90 135 0" fill="none" stroke="#7da0ff" stroke-width="12" stroke-linecap="round"/>
<g fill="#f7f7ff">
<rect x="250" y="390" width="24" height="120" rx="9"/><rect x="330" y="350" width="24" height="160" rx="9"/><rect x="410" y="410" width="24" height="100" rx="9"/>
<rect x="490" y="330" width="24" height="180" rx="9"/><rect x="570" y="370" width="24" height="140" rx="9"/>
</g>
<text x="680" y="455" fill="#ffd7ff" font-family="Segoe UI, Arial" font-size="120">♪ ♫</text>
</svg>
